horizon1994-small-corrected.ufo
<glyph name="quotedbl" format="2">
  <advance width="740"/>
  <unicode hex="0022"/>
  <outline>
    <contour>
      <point x="277.5" y="875" type="line"/>
      <point x="277.5" y="500" type="line"/>
      <point x="92.5" y="500" type="line"/>
      <point x="92.5" y="875" type="line"/>
    </contour>
    <contour>
      <point x="555" y="500" type="line"/>
      <point x="370" y="500" type="line"/>
      <point x="370" y="875" type="line"/>
      <point x="555" y="875" type="line"/>
    </contour>
  </outline>
</glyph>
<glyph name="quotesingle" format="2">
  <advance width="740"/>
  <unicode hex="0027"/>
  <outline>
    <contour>
      <point x="277.5" y="875" type="line"/>
      <point x="277.5" y="625" type="line"/>
      <point x="185" y="625" type="line"/>
      <point x="185" y="500" type="line"/>
      <point x="0" y="500" type="line"/>
      <point x="0" y="625" type="line"/>
      <point x="92.5" y="625" type="line"/>
      <point x="92.5" y="875" type="line"/>
    </contour>
  </outline>
</glyph>
<glyph name="parenright" format="2">
  <advance width="740"/>
  <unicode hex="0029"/>
  <outline>
    <contour>
      <point x="277.5" y="875" type="line"/>
      <point x="277.5" y="750" type="line"/>
      <point x="370" y="750" type="line"/>
      <point x="370" y="625" type="line"/>
      <point x="462.5" y="625" type="line"/>
      <point x="462.5" y="250" type="line"/>
      <point x="370" y="250" type="line"/>
      <point x="370" y="125" type="line"/>
      <point x="277.5" y="125" type="line"/>
      <point x="277.5" y="0" type="line"/>
      <point x="92.5" y="0" type="line"/>
      <point x="92.5" y="125" type="line"/>
      <point x="185" y="125" type="line"/>
      <point x="185" y="250" type="line"/>
      <point x="277.5" y="250" type="line"/>
      <point x="277.5" y="625" type="line"/>
      <point x="185" y="625" type="line"/>
      <point x="185" y="750" type="line"/>
      <point x="92.5" y="750" type="line"/>
      <point x="92.5" y="875" type="line"/>
    </contour>
  </outline>
</glyph>
<glyph name="asterisk" format="2">
  <advance width="740"/>
  <unicode hex="002A"/>
  <outline>
    <contour>
      <point x="462.5" y="625" type="line"/>
      <point x="462.5" y="750" type="line"/>
      <point x="647.5" y="750" type="line"/>
      <point x="647.5" y="625" type="line"/>
      <point x="555" y="625" type="line"/>
      <point x="555" y="500" type="line"/>
      <point x="740" y="500" type="line"/>
      <point x="740" y="375" type="line"/>
      <point x="555" y="375" type="line"/>
      <point x="555" y="250" type="line"/>
      <point x="647.5" y="250" type="line"/>
      <point x="647.5" y="125" type="line"/>
      <point x="555" y="125" type="line"/>
      <point x="462.5" y="125" type="line"/>
      <point x="462.5" y="250" type="line"/>
      <point x="370" y="250" type="line"/>
      <point x="277.5" y="250" type="line"/>
      <point x="277.5" y="125" type="line"/>
      <point x="185" y="125" type="line"/>
      <point x="92.5" y="125" type="line"/>
      <point x="92.5" y="250" type="line"/>
      <point x="185" y="250" type="line"/>
      <point x="185" y="375" type="line"/>
      <point x="92.5" y="375" type="line"/>
      <point x="0" y="375" type="line"/>
      <point x="0" y="500" type="line"/>
      <point x="92.5" y="500" type="line"/>
      <point x="185" y="500" type="line"/>
      <point x="185" y="625" type="line"/>
      <point x="92.5" y="625" type="line"/>
      <point x="92.5" y="750" type="line"/>
      <point x="277.5" y="750" type="line"/>
      <point x="277.5" y="625" type="line"/>
    </contour>
  </outline>
</glyph>
<glyph name="hyphen" format="2">
  <advance width="740"/>
  <unicode hex="002D"/>
  <outline>
    <contour>
      <point x="0" y="375" type="line"/>
      <point x="0" y="500" type="line"/>
      <point x="555" y="500" type="line"/>
      <point x="555" y="375" type="line"/>
    </contour>
  </outline>
</glyph>
<glyph name="period" format="2">
  <advance width="740"/>
  <unicode hex="002E"/>
  <outline>
    <contour>
      <point x="185" y="0" type="line"/>
      <point x="185" y="250" type="line"/>
      <point x="370" y="250" type="line"/>
      <point x="370" y="0" type="line"/>
    </contour>
  </outline>
</glyph>
<glyph name="semicolon" format="2">
  <advance width="740"/>
  <unicode hex="003B"/>
  <outline>
    <contour>
      <point x="92.5" y="0" type="line"/>
      <point x="185" y="0" type="line"/>
      <point x="185" y="125" type="line"/>
      <point x="185" y="250" type="line"/>
      <point x="370" y="250" type="line"/>
      <point x="370" y="125" type="line"/>
      <point x="370" y="0" type="line"/>
      <point x="277.5" y="0" type="line"/>
      <point x="277.5" y="-125" type="line"/>
      <point x="92.5" y="-125" type="line"/>
    </contour>
    <contour>
      <point x="370" y="500" type="line"/>
      <point x="185" y="500" type="line"/>
      <point x="185" y="750" type="line"/>
      <point x="370" y="750" type="line"/>
    </contour>
  </outline>
</glyph>
<glyph name="F" format="2">
  <advance width="740"/>
  <unicode hex="0046"/>
  <outline>
    <contour>
      <point x="277.5" y="0" type="line"/>
      <point x="92.5" y="0" type="line"/>
      <point x="92.5" y="875" type="line"/>
      <point x="647.5" y="875" type="line"/>
      <point x="647.5" y="750" type="line"/>
      <point x="277.5" y="750" type="line"/>
      <point x="277.5" y="625" type="line"/>
      <point x="277.5" y="500" type="line"/>
      <point x="462.5" y="500" type="line"/>
      <point x="462.5" y="375" type="line"/>
      <point x="277.5" y="375" type="line"/>
    </contour>
  </outline>
</glyph>
<glyph name="H" format="2">
  <advance width="740"/>
  <unicode hex="0048"/>
  <outline>
    <contour>
      <point x="555" y="875" type="line"/>
      <point x="555" y="0" type="line"/>
      <point x="370" y="0" type="line"/>
      <point x="370" y="375" type="line"/>
      <point x="185" y="375" type="line"/>
      <point x="185" y="0" type="line"/>
      <point x="0" y="0" type="line"/>
      <point x="0" y="875" type="line"/>
      <point x="185" y="875" type="line"/>
      <point x="185" y="500" type="line"/>
      <point x="370" y="500" type="line"/>
      <point x="370" y="875" type="line"/>
    </contour>
  </outline>
</glyph>
<glyph name="L" format="2">
  <advance width="740"/>
  <unicode hex="004C"/>
  <outline>
    <contour>
      <point x="277.5" y="875" type="line"/>
      <point x="277.5" y="125" type="line"/>
      <point x="647.5" y="125" type="line"/>
      <point x="647.5" y="0" type="line"/>
      <point x="92.5" y="0" type="line"/>
      <point x="92.5" y="500" type="line"/>
      <point x="92.5" y="875" type="line"/>
    </contour>
  </outline>
</glyph>
<glyph name="U" format="2">
  <advance width="740"/>
  <unicode hex="0055"/>
  <outline>
    <contour>
      <point x="555" y="875" type="line"/>
      <point x="555" y="0" type="line"/>
      <point x="0" y="0" type="line"/>
      <point x="0" y="875" type="line"/>
      <point x="185" y="875" type="line"/>
      <point x="185" y="375" type="line"/>
      <point x="185" y="125" type="line"/>
      <point x="370" y="125" type="line"/>
      <point x="370" y="500" type="line"/>
      <point x="370" y="875" type="line"/>
    </contour>
  </outline>
</glyph>
<glyph name="W" format="2">
  <advance width="740"/>
  <unicode hex="0057"/>
  <outline>
    <contour>
      <point x="462.5" y="875" type="line"/>
      <point x="647.5" y="875" type="line"/>
      <point x="647.5" y="0" type="line"/>
      <point x="462.5" y="0" type="line"/>
      <point x="462.5" y="125" type="line"/>
      <point x="370" y="125" type="line"/>
      <point x="370" y="250" type="line"/>
      <point x="277.5" y="250" type="line"/>
      <point x="277.5" y="125" type="line"/>
      <point x="185" y="125" type="line"/>
      <point x="185" y="0" type="line"/>
      <point x="0" y="0" type="line"/>
      <point x="0" y="875" type="line"/>
      <point x="185" y="875" type="line"/>
      <point x="185" y="375" type="line"/>
      <point x="277.5" y="375" type="line"/>
      <point x="277.5" y="500" type="line"/>
      <point x="370" y="500" type="line"/>
      <point x="370" y="375" type="line"/>
      <point x="462.5" y="375" type="line"/>
    </contour>
  </outline>
</glyph>
<glyph name="X" format="2">
  <advance width="740"/>
  <unicode hex="0058"/>
  <outline>
    <contour>
      <point x="462.5" y="625" type="line"/>
      <point x="462.5" y="875" type="line"/>
      <point x="647.5" y="875" type="line"/>
      <point x="647.5" y="750" type="line"/>
      <point x="647.5" y="625" type="line"/>
      <point x="555" y="625" type="line"/>
      <point x="555" y="500" type="line"/>
      <point x="462.5" y="500" type="line"/>
      <point x="462.5" y="250" type="line"/>
      <point x="555" y="250" type="line"/>
      <point x="555" y="125" type="line"/>
      <point x="647.5" y="125" type="line"/>
      <point x="647.5" y="0" type="line"/>
      <point x="462.5" y="0" type="line"/>
      <point x="462.5" y="125" type="line"/>
      <point x="370" y="125" type="line"/>
      <point x="370" y="250" type="line"/>
      <point x="277.5" y="250" type="line"/>
      <point x="277.5" y="125" type="line"/>
      <point x="185" y="125" type="line"/>
      <point x="185" y="0" type="line"/>
      <point x="0" y="0" type="line"/>
      <point x="0" y="125" type="line"/>
      <point x="92.5" y="125" type="line"/>
      <point x="92.5" y="250" type="line"/>
      <point x="185" y="250" type="line"/>
      <point x="185" y="500" type="line"/>
      <point x="92.5" y="500" type="line"/>
      <point x="92.5" y="625" type="line"/>
      <point x="0" y="625" type="line"/>
      <point x="0" y="750" type="line"/>
      <point x="0" y="875" type="line"/>
      <point x="92.5" y="875" type="line"/>
      <point x="185" y="875" type="line"/>
      <point x="185" y="625" type="line"/>
      <point x="277.5" y="625" type="line"/>
      <point x="277.5" y="500" type="line"/>
      <point x="370" y="500" type="line"/>
      <point x="370" y="625" type="line"/>
    </contour>
  </outline>
</glyph>
<glyph name="bracketleft" format="2">
  <advance width="740"/>
  <unicode hex="005B"/>
  <outline>
    <contour>
      <point x="277.5" y="125" type="line"/>
      <point x="462.5" y="125" type="line"/>
      <point x="462.5" y="0" type="line"/>
      <point x="92.5" y="0" type="line"/>
      <point x="92.5" y="875" type="line"/>
      <point x="462.5" y="875" type="line"/>
      <point x="462.5" y="750" type="line"/>
      <point x="277.5" y="750" type="line"/>
    </contour>
  </outline>
</glyph>
<glyph name="asciicircum" format="2">
  <advance width="740"/>
  <unicode hex="005E"/>
  <outline>
    <contour>
      <point x="0" y="500" type="line"/>
      <point x="92.5" y="500" type="line"/>
      <point x="92.5" y="625" type="line"/>
      <point x="185" y="625" type="line"/>
      <point x="185" y="750" type="line"/>
      <point x="277.5" y="750" type="line"/>
      <point x="277.5" y="875" type="line"/>
      <point x="370" y="875" type="line"/>
      <point x="370" y="750" type="line"/>
      <point x="462.5" y="750" type="line"/>
      <point x="462.5" y="625" type="line"/>
      <point x="555" y="625" type="line"/>
      <point x="555" y="500" type="line"/>
      <point x="647.5" y="500" type="line"/>
      <point x="647.5" y="375" type="line"/>
      <point x="555" y="375" type="line"/>
      <point x="462.5" y="375" type="line"/>
      <point x="462.5" y="500" type="line"/>
      <point x="370" y="500" type="line"/>
      <point x="370" y="625" type="line"/>
      <point x="277.5" y="625" type="line"/>
      <point x="277.5" y="500" type="line"/>
      <point x="185" y="500" type="line"/>
      <point x="185" y="375" type="line"/>
      <point x="92.5" y="375" type="line"/>
      <point x="0" y="375" type="line"/>
    </contour>
  </outline>
</glyph>
<glyph name="f" format="2">
  <advance width="740"/>
  <unicode hex="0066"/>
  <outline>
    <contour>
      <point x="92.5" y="125" type="line"/>
      <point x="92.5" y="375" type="line"/>
      <point x="0" y="375" type="line"/>
      <point x="0" y="500" type="line"/>
      <point x="92.5" y="500" type="line"/>
      <point x="92.5" y="750" type="line"/>
      <point x="185" y="750" type="line"/>
      <point x="185" y="875" type="line"/>
      <point x="462.5" y="875" type="line"/>
      <point x="462.5" y="750" type="line"/>
      <point x="555" y="750" type="line"/>
      <point x="555" y="625" type="line"/>
      <point x="370" y="625" type="line"/>
      <point x="370" y="750" type="line"/>
      <point x="277.5" y="750" type="line"/>
      <point x="277.5" y="500" type="line"/>
      <point x="370" y="500" type="line"/>
      <point x="370" y="375" type="line"/>
      <point x="277.5" y="375" type="line"/>
      <point x="277.5" y="125" type="line"/>
      <point x="370" y="125" type="line"/>
      <point x="370" y="0" type="line"/>
      <point x="0" y="0" type="line"/>
      <point x="0" y="125" type="line"/>
    </contour>
  </outline>
</glyph>
<glyph name="l" format="2">
  <advance width="740"/>
  <unicode hex="006C"/>
  <outline>
    <contour>
      <point x="462.5" y="0" type="line"/>
      <point x="92.5" y="0" type="line"/>
      <point x="92.5" y="125" type="line"/>
      <point x="185" y="125" type="line"/>
      <point x="185" y="750" type="line"/>
      <point x="92.5" y="750" type="line"/>
      <point x="92.5" y="875" type="line"/>
      <point x="370" y="875" type="line"/>
      <point x="370" y="125" type="line"/>
      <point x="462.5" y="125" type="line"/>
    </contour>
  </outline>
</glyph>
<glyph name="n" format="2">
  <advance width="740"/>
  <unicode hex="006E"/>
  <outline>
    <contour>
      <point x="0" y="0" type="line"/>
      <point x="0" y="625" type="line"/>
      <point x="462.5" y="625" type="line"/>
      <point x="462.5" y="500" type="line"/>
      <point x="555" y="500" type="line"/>
      <point x="555" y="0" type="line"/>
      <point x="370" y="0" type="line"/>
      <point x="370" y="500" type="line"/>
      <point x="185" y="500" type="line"/>
      <point x="185" y="0" type="line"/>
    </contour>
  </outline>
</glyph>
<glyph name="u" format="2">
  <advance width="740"/>
  <unicode hex="0075"/>
  <outline>
    <contour>
      <point x="0" y="625" type="line"/>
      <point x="185" y="625" type="line"/>
      <point x="185" y="250" type="line"/>
      <point x="185" y="125" type="line"/>
      <point x="370" y="125" type="line"/>
      <point x="370" y="0" type="line"/>
      <point x="92.5" y="0" type="line"/>
      <point x="92.5" y="125" type="line"/>
      <point x="0" y="125" type="line"/>
      <point x="0" y="375" type="line"/>
    </contour>
    <contour>
      <point x="370" y="625" type="line"/>
      <point x="555" y="625" type="line"/>
      <point x="555" y="125" type="line"/>
      <point x="647.5" y="125" type="line"/>
      <point x="647.5" y="0" type="line"/>
      <point x="462.5" y="0" type="line"/>
      <point x="462.5" y="125" type="line"/>
      <point x="370" y="125" type="line"/>
    </contour>
  </outline>
</glyph>
<glyph name="v" format="2">
  <advance width="740"/>
  <unicode hex="0076"/>
  <outline>
    <contour>
      <point x="370" y="250" type="line"/>
      <point x="370" y="625" type="line"/>
      <point x="462.5" y="625" type="line"/>
      <point x="555" y="625" type="line"/>
      <point x="555" y="250" type="line"/>
      <point x="462.5" y="250" type="line"/>
      <point x="462.5" y="125" type="line"/>
      <point x="370" y="125" type="line"/>
      <point x="370" y="0" type="line"/>
      <point x="185" y="0" type="line"/>
      <point x="185" y="125" type="line"/>
      <point x="92.5" y="125" type="line"/>
      <point x="92.5" y="250" type="line"/>
      <point x="0" y="250" type="line"/>
      <point x="0" y="500" type="line"/>
      <point x="0" y="625" type="line"/>
      <point x="185" y="625" type="line"/>
      <point x="185" y="250" type="line"/>
    </contour>
  </outline>
</glyph>
<glyph name="y" format="2">
  <advance width="740"/>
  <unicode hex="0079"/>
  <outline>
    <contour>
      <point x="92.5" y="125" type="line"/>
      <point x="92.5" y="250" type="line"/>
      <point x="0" y="250" type="line"/>
      <point x="0" y="625" type="line"/>
      <point x="185" y="625" type="line"/>
      <point x="185" y="250" type="line"/>
      <point x="370" y="250" type="line"/>
      <point x="370" y="625" type="line"/>
      <point x="555" y="625" type="line"/>
      <point x="555" y="0" type="line"/>
      <point x="462.5" y="0" type="line"/>
      <point x="462.5" y="-125" type="line"/>
      <point x="277.5" y="-125" type="line"/>
      <point x="0" y="-125" type="line"/>
      <point x="0" y="0" type="line"/>
      <point x="370" y="0" type="line"/>
      <point x="370" y="125" type="line"/>
    </contour>
  </outline>
</glyph>
<glyph name="bar" format="2">
  <advance width="740"/>
  <unicode hex="007C"/>
  <outline>
    <contour>
      <point x="277.5" y="500" type="line"/>
      <point x="277.5" y="875" type="line"/>
      <point x="462.5" y="875" type="line"/>
      <point x="462.5" y="500" type="line"/>
    </contour>
    <contour>
      <point x="277.5" y="375" type="line"/>
      <point x="462.5" y="375" type="line"/>
      <point x="462.5" y="0" type="line"/>
      <point x="277.5" y="0" type="line"/>
    </contour>
  </outline>
</glyph>
<glyph name="exclamdown" format="2">
  <advance width="740"/>
  <unicode hex="00A1"/>
  <outline>
    <contour>
      <point x="277.5" y="500" type="line"/>
      <point x="462.5" y="500" type="line"/>
      <point x="462.5" y="0" type="line"/>
      <point x="277.5" y="0" type="line"/>
    </contour>
    <contour>
      <point x="462.5" y="875" type="line"/>
      <point x="462.5" y="625" type="line"/>
      <point x="277.5" y="625" type="line"/>
      <point x="277.5" y="875" type="line"/>
    </contour>
  </outline>
</glyph>
<glyph name="uni00B2" format="2">
  <advance width="740"/>
  <unicode hex="00B2"/>
  <outline>
    <contour>
      <point x="277.5" y="500" type="line"/>
      <point x="277.5" y="375" type="line"/>
      <point x="462.5" y="375" type="line"/>
      <point x="462.5" y="250" type="line"/>
      <point x="92.5" y="250" type="line"/>
      <point x="92.5" y="500" type="line"/>
      <point x="185" y="500" type="line"/>
      <point x="185" y="625" type="line"/>
      <point x="277.5" y="625" type="line"/>
      <point x="277.5" y="750" type="line"/>
      <point x="92.5" y="750" type="line"/>
      <point x="92.5" y="875" type="line"/>
      <point x="370" y="875" type="line"/>
      <point x="370" y="750" type="line"/>
      <point x="462.5" y="750" type="line"/>
      <point x="462.5" y="625" type="line"/>
      <point x="370" y="625" type="line"/>
      <point x="370" y="500" type="line"/>
    </contour>
  </outline>
</glyph>
<glyph name="periodcentered" format="2">
  <advance width="740"/>
  <unicode hex="00B7"/>
  <outline>
    <contour>
      <point x="277.5" y="250" type="line"/>
      <point x="277.5" y="375" type="line"/>
      <point x="370" y="375" type="line"/>
      <point x="462.5" y="375" type="line"/>
      <point x="462.5" y="250" type="line"/>
      <point x="370" y="250" type="line"/>
    </contour>
  </outline>
</glyph>
<glyph name="icircumflex" format="2">
  <advance width="740"/>
  <unicode hex="00EE"/>
  <outline>
    <contour>
      <point x="462.5" y="125" type="line"/>
      <point x="555" y="125" type="line"/>
      <point x="555" y="0" type="line"/>
      <point x="185" y="0" type="line"/>
      <point x="185" y="125" type="line"/>
      <point x="277.5" y="125" type="line"/>
      <point x="277.5" y="500" type="line"/>
      <point x="185" y="500" type="line"/>
      <point x="185" y="625" type="line"/>
      <point x="277.5" y="625" type="line"/>
      <point x="462.5" y="625" type="line"/>
      <point x="462.5" y="500" type="line"/>
    </contour>
    <contour>
      <point x="462.5" y="625" type="line"/>
      <point x="462.5" y="750" type="line"/>
      <point x="185" y="750" type="line"/>
      <point x="185" y="625" type="line"/>
      <point x="0" y="625" type="line"/>
      <point x="0" y="750" type="line"/>
      <point x="92.5" y="750" type="line"/>
      <point x="92.5" y="875" type="line"/>
      <point x="462.5" y="875" type="line"/>
      <point x="555" y="875" type="line"/>
      <point x="555" y="750" type="line"/>
      <point x="647.5" y="750" type="line"/>
      <point x="647.5" y="625" type="line"/>
    </contour>
  </outline>
</glyph>
<glyph name="ntilde" format="2">
  <advance width="740"/>
  <unicode hex="00F1"/>
  <outline>
    <contour>
      <point x="0" y="500" type="line"/>
      <point x="462.5" y="500" type="line"/>
      <point x="462.5" y="375" type="line"/>
      <point x="555" y="375" type="line"/>
      <point x="555" y="0" type="line"/>
      <point x="370" y="0" type="line"/>
      <point x="370" y="375" type="line"/>
      <point x="185" y="375" type="line"/>
      <point x="185" y="0" type="line"/>
      <point x="92.5" y="0" type="line"/>
      <point x="0" y="0" type="line"/>
      <point x="0" y="250" type="line"/>
    </contour>
    <contour>
      <point x="370" y="750" type="line"/>
      <point x="462.5" y="750" type="line"/>
      <point x="462.5" y="625" type="line"/>
      <point x="370" y="625" type="line"/>
      <point x="0" y="625" type="line"/>
      <point x="0" y="750" type="line"/>
    </contour>
  </outline>
</glyph>
<glyph name="divide" format="2">
  <advance width="740"/>
  <unicode hex="00F7"/>
  <outline>
    <contour>
      <point x="0" y="375" type="line"/>
      <point x="0" y="500" type="line"/>
      <point x="555" y="500" type="line"/>
      <point x="555" y="375" type="line"/>
    </contour>
    <contour>
      <point x="370" y="875" type="line"/>
      <point x="370" y="625" type="line"/>
      <point x="185" y="625" type="line"/>
      <point x="185" y="875" type="line"/>
    </contour>
    <contour>
      <point x="185" y="0" type="line"/>
      <point x="185" y="250" type="line"/>
      <point x="370" y="250" type="line"/>
      <point x="370" y="0" type="line"/>
    </contour>
  </outline>
</glyph>
<glyph name="ydieresis" format="2">
  <advance width="740"/>
  <unicode hex="00FF"/>
  <outline>
    <contour>
      <point x="92.5" y="125" type="line"/>
      <point x="92.5" y="250" type="line"/>
      <point x="0" y="250" type="line"/>
      <point x="0" y="500" type="line"/>
      <point x="185" y="500" type="line"/>
      <point x="185" y="250" type="line"/>
      <point x="370" y="250" type="line"/>
      <point x="370" y="500" type="line"/>
      <point x="555" y="500" type="line"/>
      <point x="555" y="0" type="line"/>
      <point x="462.5" y="0" type="line"/>
      <point x="462.5" y="-125" type="line"/>
      <point x="370" y="-125" type="line"/>
      <point x="0" y="-125" type="line"/>
      <point x="0" y="0" type="line"/>
      <point x="370" y="0" type="line"/>
      <point x="370" y="125" type="line"/>
    </contour>
    <contour>
      <point x="92.5" y="750" type="line"/>
      <point x="185" y="750" type="line"/>
      <point x="185" y="625" type="line"/>
      <point x="92.5" y="625" type="line"/>
      <point x="0" y="625" type="line"/>
      <point x="0" y="750" type="line"/>
    </contour>
    <contour>
      <point x="555" y="750" type="line"/>
      <point x="555" y="625" type="line"/>
      <point x="462.5" y="625" type="line"/>
      <point x="370" y="625" type="line"/>
      <point x="370" y="750" type="line"/>
      <point x="462.5" y="750" type="line"/>
    </contour>
  </outline>
</glyph>
<glyph name="florin" format="2">
  <advance width="740"/>
  <unicode hex="0192"/>
  <outline>
    <contour>
      <point x="740" y="625" type="line"/>
      <point x="555" y="625" type="line"/>
      <point x="555" y="750" type="line"/>
      <point x="462.5" y="750" type="line"/>
      <point x="462.5" y="500" type="line"/>
      <point x="555" y="500" type="line"/>
      <point x="555" y="375" type="line"/>
      <point x="462.5" y="375" type="line"/>
      <point x="462.5" y="125" type="line"/>
      <point x="462.5" y="0" type="line"/>
      <point x="370" y="0" type="line"/>
      <point x="370" y="-125" type="line"/>
      <point x="92.5" y="-125" type="line"/>
      <point x="92.5" y="0" type="line"/>
      <point x="0" y="0" type="line"/>
      <point x="0" y="125" type="line"/>
      <point x="185" y="125" type="line"/>
      <point x="185" y="0" type="line"/>
      <point x="277.5" y="0" type="line"/>
      <point x="277.5" y="375" type="line"/>
      <point x="185" y="375" type="line"/>
      <point x="185" y="500" type="line"/>
      <point x="277.5" y="500" type="line"/>
      <point x="277.5" y="750" type="line"/>
      <point x="370" y="750" type="line"/>
      <point x="370" y="875" type="line"/>
      <point x="462.5" y="875" type="line"/>
      <point x="647.5" y="875" type="line"/>
      <point x="647.5" y="750" type="line"/>
      <point x="740" y="750" type="line"/>
    </contour>
  </outline>
</glyph>
<glyph name="Gamma" format="2">
  <advance width="740"/>
  <unicode hex="0393"/>
  <outline>
    <contour>
      <point x="462.5" y="500" type="line"/>
      <point x="370" y="500" type="line"/>
      <point x="370" y="625" type="line"/>
      <point x="277.5" y="625" type="line"/>
      <point x="185" y="625" type="line"/>
      <point x="185" y="375" type="line"/>
      <point x="185" y="0" type="line"/>
      <point x="0" y="0" type="line"/>
      <point x="0" y="125" type="line"/>
      <point x="0" y="375" type="line"/>
      <point x="0" y="750" type="line"/>
      <point x="92.5" y="750" type="line"/>
      <point x="370" y="750" type="line"/>
      <point x="555" y="750" type="line"/>
      <point x="555" y="500" type="line"/>
    </contour>
  </outline>
</glyph>
<glyph name="peseta" format="2">
  <advance width="740"/>
  <unicode hex="20A7"/>
  <outline>
    <contour>
      <point x="555" y="500" type="line"/>
      <point x="462.5" y="500" type="line"/>
      <point x="462.5" y="375" type="line"/>
      <point x="185" y="375" type="line"/>
      <point x="185" y="-125" type="line"/>
      <point x="0" y="-125" type="line"/>
      <point x="0" y="875" type="line"/>
      <point x="462.5" y="875" type="line"/>
      <point x="462.5" y="750" type="line"/>
      <point x="555" y="750" type="line"/>
    </contour>
    <contour>
      <point x="370" y="750" type="line"/>
      <point x="185" y="750" type="line"/>
      <point x="185" y="500" type="line"/>
      <point x="370" y="500" type="line"/>
    </contour>
    <contour>
      <point x="740" y="0" type="line"/>
      <point x="740" y="-125" type="line"/>
      <point x="555" y="-125" type="line"/>
      <point x="462.5" y="-125" type="line"/>
      <point x="462.5" y="125" type="line"/>
      <point x="370" y="125" type="line"/>
      <point x="370" y="250" type="line"/>
      <point x="462.5" y="250" type="line"/>
      <point x="462.5" y="375" type="line"/>
      <point x="555" y="375" type="line"/>
      <point x="555" y="500" type="line"/>
      <point x="647.5" y="500" type="line"/>
      <point x="647.5" y="375" type="line"/>
      <point x="647.5" y="250" type="line"/>
      <point x="740" y="250" type="line"/>
      <point x="740" y="125" type="line"/>
      <point x="647.5" y="125" type="line"/>
      <point x="647.5" y="0" type="line"/>
    </contour>
  </outline>
</glyph>
<glyph name="arrowup" format="2">
  <advance width="740"/>
  <unicode hex="2191"/>
  <outline>
    <contour>
      <point x="462.5" y="875" type="line"/>
      <point x="462.5" y="750" type="line"/>
      <point x="555" y="750" type="line"/>
      <point x="555" y="625" type="line"/>
      <point x="647.5" y="625" type="line"/>
      <point x="647.5" y="500" type="line"/>
      <point x="462.5" y="500" type="line"/>
      <point x="462.5" y="0" type="line"/>
      <point x="277.5" y="0" type="line"/>
      <point x="277.5" y="500" type="line"/>
      <point x="92.5" y="500" type="line"/>
      <point x="92.5" y="625" type="line"/>
      <point x="185" y="625" type="line"/>
      <point x="185" y="750" type="line"/>
      <point x="277.5" y="750" type="line"/>
      <point x="277.5" y="875" type="line"/>
    </contour>
  </outline>
</glyph>
<glyph name="arrowdown" format="2">
  <advance width="740"/>
  <unicode hex="2193"/>
  <outline>
    <contour>
      <point x="185" y="375" type="line"/>
      <point x="277.5" y="375" type="line"/>
      <point x="277.5" y="875" type="line"/>
      <point x="462.5" y="875" type="line"/>
      <point x="462.5" y="375" type="line"/>
      <point x="647.5" y="375" type="line"/>
      <point x="647.5" y="250" type="line"/>
      <point x="555" y="250" type="line"/>
      <point x="555" y="125" type="line"/>
      <point x="462.5" y="125" type="line"/>
      <point x="462.5" y="0" type="line"/>
      <point x="277.5" y="0" type="line"/>
      <point x="277.5" y="125" type="line"/>
      <point x="185" y="125" type="line"/>
      <point x="185" y="250" type="line"/>
      <point x="92.5" y="250" type="line"/>
      <point x="92.5" y="375" type="line"/>
    </contour>
  </outline>
</glyph>
<glyph name="uni2219" format="2">
  <advance width="740"/>
  <unicode hex="2219"/>
  <outline>
    <contour>
      <point x="277.5" y="250" type="line"/>
      <point x="277.5" y="500" type="line"/>
      <point x="462.5" y="500" type="line"/>
      <point x="462.5" y="250" type="line"/>
    </contour>
  </outline>
</glyph>
<glyph name="orthogonal" format="2">
  <advance width="740"/>
  <unicode hex="221F"/>
  <outline>
    <contour>
      <point x="647.5" y="250" type="line"/>
      <point x="647.5" y="125" type="line"/>
      <point x="555" y="125" type="line"/>
      <point x="0" y="125" type="line"/>
      <point x="0" y="625" type="line"/>
      <point x="185" y="625" type="line"/>
      <point x="185" y="250" type="line"/>
    </contour>
  </outline>
</glyph>
<glyph name="lessequal" format="2">
  <advance width="740"/>
  <unicode hex="2264"/>
  <outline>
    <contour>
      <point x="462.5" y="875" type="line"/>
      <point x="462.5" y="750" type="line"/>
      <point x="370" y="750" type="line"/>
      <point x="370" y="625" type="line"/>
      <point x="277.5" y="625" type="line"/>
      <point x="277.5" y="500" type="line"/>
      <point x="370" y="500" type="line"/>
      <point x="370" y="375" type="line"/>
      <point x="462.5" y="375" type="line"/>
      <point x="462.5" y="250" type="line"/>
      <point x="277.5" y="250" type="line"/>
      <point x="277.5" y="375" type="line"/>
      <point x="185" y="375" type="line"/>
      <point x="185" y="500" type="line"/>
      <point x="92.5" y="500" type="line"/>
      <point x="92.5" y="625" type="line"/>
      <point x="185" y="625" type="line"/>
      <point x="185" y="750" type="line"/>
      <point x="277.5" y="750" type="line"/>
      <point x="277.5" y="875" type="line"/>
    </contour>
    <contour>
      <point x="0" y="0" type="line"/>
      <point x="0" y="125" type="line"/>
      <point x="462.5" y="125" type="line"/>
      <point x="555" y="125" type="line"/>
      <point x="555" y="0" type="line"/>
      <point x="462.5" y="0" type="line"/>
    </contour>
  </outline>
</glyph>
<glyph name="revlogicalnot" format="2">
  <advance width="740"/>
  <unicode hex="2310"/>
  <outline>
    <contour>
      <point x="0" y="500" type="line"/>
      <point x="555" y="500" type="line"/>
      <point x="555" y="375" type="line"/>
      <point x="185" y="375" type="line"/>
      <point x="185" y="125" type="line"/>
      <point x="92.5" y="125" type="line"/>
      <point x="0" y="125" type="line"/>
    </contour>
  </outline>
</glyph>
<glyph name="integraltp" format="2">
  <advance width="740"/>
  <unicode hex="2320"/>
  <outline>
    <contour>
      <point x="462.5" y="875" type="line"/>
      <point x="647.5" y="875" type="line"/>
      <point x="647.5" y="750" type="line"/>
      <point x="740" y="750" type="line"/>
      <point x="740" y="500" type="line"/>
      <point x="555" y="500" type="line"/>
      <point x="555" y="750" type="line"/>
      <point x="462.5" y="750" type="line"/>
      <point x="462.5" y="250" type="line"/>
      <point x="462.5" y="-125" type="line"/>
      <point x="277.5" y="-125" type="line"/>
      <point x="277.5" y="250" type="line"/>
      <point x="277.5" y="750" type="line"/>
      <point x="370" y="750" type="line"/>
      <point x="370" y="875" type="line"/>
    </contour>
  </outline>
</glyph>
<glyph name="SF100000" format="2">
  <advance width="740"/>
  <unicode hex="2500"/>
  <outline>
    <contour>
      <point x="740" y="375" type="line"/>
      <point x="740" y="250" type="line"/>
      <point x="0" y="250" type="line"/>
      <point x="0" y="375" type="line"/>
    </contour>
  </outline>
</glyph>
<glyph name="SF020000" format="2">
  <advance width="740"/>
  <unicode hex="2514"/>
  <outline>
    <contour>
      <point x="740" y="375" type="line"/>
      <point x="740" y="250" type="line"/>
      <point x="277.5" y="250" type="line"/>
      <point x="277.5" y="875" type="line"/>
      <point x="462.5" y="875" type="line"/>
      <point x="462.5" y="375" type="line"/>
    </contour>
  </outline>
</glyph>
<glyph name="SF090000" format="2">
  <advance width="740"/>
  <unicode hex="2524"/>
  <outline>
    <contour>
      <point x="277.5" y="375" type="line"/>
      <point x="277.5" y="875" type="line"/>
      <point x="462.5" y="875" type="line"/>
      <point x="462.5" y="-125" type="line"/>
      <point x="277.5" y="-125" type="line"/>
      <point x="277.5" y="250" type="line"/>
      <point x="0" y="250" type="line"/>
      <point x="0" y="375" type="line"/>
    </contour>
  </outline>
</glyph>
<glyph name="SF060000" format="2">
  <advance width="740"/>
  <unicode hex="252C"/>
  <outline>
    <contour>
      <point x="740" y="375" type="line"/>
      <point x="740" y="250" type="line"/>
      <point x="462.5" y="250" type="line"/>
      <point x="462.5" y="-125" type="line"/>
      <point x="277.5" y="-125" type="line"/>
      <point x="277.5" y="250" type="line"/>
      <point x="0" y="250" type="line"/>
      <point x="0" y="375" type="line"/>
    </contour>
  </outline>
</glyph>
<glyph name="SF070000" format="2">
  <advance width="740"/>
  <unicode hex="2534"/>
  <outline>
    <contour>
      <point x="277.5" y="375" type="line"/>
      <point x="277.5" y="875" type="line"/>
      <point x="462.5" y="875" type="line"/>
      <point x="462.5" y="375" type="line"/>
      <point x="740" y="375" type="line"/>
      <point x="740" y="250" type="line"/>
      <point x="0" y="250" type="line"/>
      <point x="0" y="375" type="line"/>
    </contour>
  </outline>
</glyph>
<glyph name="SF510000" format="2">
  <advance width="740"/>
  <unicode hex="2552"/>
  <outline>
    <contour>
      <point x="740" y="625" type="line"/>
      <point x="740" y="500" type="line"/>
      <point x="462.5" y="500" type="line"/>
      <point x="462.5" y="375" type="line"/>
      <point x="740" y="375" type="line"/>
      <point x="740" y="250" type="line"/>
      <point x="555" y="250" type="line"/>
      <point x="462.5" y="250" type="line"/>
      <point x="462.5" y="0" type="line"/>
      <point x="462.5" y="-125" type="line"/>
      <point x="277.5" y="-125" type="line"/>
      <point x="277.5" y="125" type="line"/>
      <point x="277.5" y="500" type="line"/>
      <point x="277.5" y="625" type="line"/>
      <point x="555" y="625" type="line"/>
    </contour>
  </outline>
</glyph>
<glyph name="SF220000" format="2">
  <advance width="740"/>
  <unicode hex="2555"/>
  <outline>
    <contour>
      <point x="277.5" y="375" type="line"/>
      <point x="277.5" y="500" type="line"/>
      <point x="0" y="500" type="line"/>
      <point x="0" y="625" type="line"/>
      <point x="462.5" y="625" type="line"/>
      <point x="462.5" y="250" type="line"/>
      <point x="462.5" y="-125" type="line"/>
      <point x="277.5" y="-125" type="line"/>
      <point x="277.5" y="125" type="line"/>
      <point x="277.5" y="250" type="line"/>
      <point x="0" y="250" type="line"/>
      <point x="0" y="375" type="line"/>
    </contour>
  </outline>
</glyph>
<glyph name="SF210000" format="2">
  <advance width="740"/>
  <unicode hex="2556"/>
  <outline>
    <contour>
      <point x="370" y="375" type="line"/>
      <point x="647.5" y="375" type="line"/>
      <point x="647.5" y="-125" type="line"/>
      <point x="462.5" y="-125" type="line"/>
      <point x="462.5" y="250" type="line"/>
      <point x="370" y="250" type="line"/>
      <point x="370" y="-125" type="line"/>
      <point x="185" y="-125" type="line"/>
      <point x="185" y="0" type="line"/>
      <point x="185" y="250" type="line"/>
      <point x="0" y="250" type="line"/>
      <point x="0" y="375" type="line"/>
    </contour>
  </outline>
</glyph>
<glyph name="SF380000" format="2">
  <advance width="740"/>
  <unicode hex="255A"/>
  <outline>
    <contour>
      <point x="740" y="375" type="line"/>
      <point x="740" y="250" type="line"/>
      <point x="647.5" y="250" type="line"/>
      <point x="370" y="250" type="line"/>
      <point x="185" y="250" type="line"/>
      <point x="185" y="375" type="line"/>
      <point x="185" y="500" type="line"/>
      <point x="185" y="875" type="line"/>
      <point x="370" y="875" type="line"/>
      <point x="370" y="500" type="line"/>
      <point x="370" y="375" type="line"/>
      <point x="647.5" y="375" type="line"/>
    </contour>
    <contour>
      <point x="647.5" y="625" type="line"/>
      <point x="740" y="625" type="line"/>
      <point x="740" y="500" type="line"/>
      <point x="462.5" y="500" type="line"/>
      <point x="462.5" y="875" type="line"/>
      <point x="647.5" y="875" type="line"/>
    </contour>
  </outline>
</glyph>
<glyph name="SF460000" format="2">
  <advance width="740"/>
  <unicode hex="2568"/>
  <outline>
    <contour>
      <point x="462.5" y="875" type="line"/>
      <point x="647.5" y="875" type="line"/>
      <point x="647.5" y="375" type="line"/>
      <point x="740" y="375" type="line"/>
      <point x="740" y="250" type="line"/>
      <point x="370" y="250" type="line"/>
      <point x="0" y="250" type="line"/>
      <point x="0" y="375" type="line"/>
      <point x="185" y="375" type="line"/>
      <point x="185" y="625" type="line"/>
      <point x="185" y="875" type="line"/>
      <point x="370" y="875" type="line"/>
      <point x="370" y="625" type="line"/>
      <point x="370" y="375" type="line"/>
      <point x="462.5" y="375" type="line"/>
    </contour>
  </outline>
</glyph>
<glyph name="SF530000" format="2">
  <advance width="740"/>
  <unicode hex="256B"/>
  <outline>
    <contour>
      <point x="462.5" y="875" type="line"/>
      <point x="647.5" y="875" type="line"/>
      <point x="647.5" y="375" type="line"/>
      <point x="740" y="375" type="line"/>
      <point x="740" y="250" type="line"/>
      <point x="647.5" y="250" type="line"/>
      <point x="647.5" y="-125" type="line"/>
      <point x="462.5" y="-125" type="line"/>
      <point x="462.5" y="250" type="line"/>
      <point x="370" y="250" type="line"/>
      <point x="370" y="-125" type="line"/>
      <point x="185" y="-125" type="line"/>
      <point x="185" y="250" type="line"/>
      <point x="0" y="250" type="line"/>
      <point x="0" y="375" type="line"/>
      <point x="185" y="375" type="line"/>
      <point x="185" y="875" type="line"/>
      <point x="370" y="875" type="line"/>
      <point x="370" y="375" type="line"/>
      <point x="462.5" y="375" type="line"/>
    </contour>
  </outline>
</glyph>
<glyph name="SF440000" format="2">
  <advance width="740"/>
  <unicode hex="256C"/>
  <outline>
    <contour>
      <point x="370" y="375" type="line"/>
      <point x="370" y="-125" type="line"/>
      <point x="185" y="-125" type="line"/>
      <point x="185" y="250" type="line"/>
      <point x="0" y="250" type="line"/>
      <point x="0" y="375" type="line"/>
    </contour>
    <contour>
      <point x="740" y="375" type="line"/>
      <point x="740" y="250" type="line"/>
      <point x="647.5" y="250" type="line"/>
      <point x="647.5" y="-125" type="line"/>
      <point x="462.5" y="-125" type="line"/>
      <point x="462.5" y="250" type="line"/>
      <point x="462.5" y="375" type="line"/>
    </contour>
    <contour>
      <point x="370" y="500" type="line"/>
      <point x="0" y="500" type="line"/>
      <point x="0" y="625" type="line"/>
      <point x="185" y="625" type="line"/>
      <point x="185" y="875" type="line"/>
      <point x="370" y="875" type="line"/>
    </contour>
    <contour>
      <point x="647.5" y="625" type="line"/>
      <point x="740" y="625" type="line"/>
      <point x="740" y="500" type="line"/>
      <point x="462.5" y="500" type="line"/>
      <point x="462.5" y="875" type="line"/>
      <point x="647.5" y="875" type="line"/>
    </contour>
  </outline>
</glyph>
<glyph name="upblock" format="2">
  <advance width="740"/>
  <unicode hex="2580"/>
  <outline>
    <contour>
      <point x="740" y="875" type="line"/>
      <point x="740" y="375" type="line"/>
      <point x="0" y="375" type="line"/>
      <point x="0" y="875" type="line"/>
    </contour>
  </outline>
</glyph>
<glyph name="dnblock" format="2">
  <advance width="740"/>
  <unicode hex="2584"/>
  <outline>
    <contour>
      <point x="740" y="-125" type="line"/>
      <point x="0" y="-125" type="line"/>
      <point x="0" y="375" type="line"/>
      <point x="740" y="375" type="line"/>
    </contour>
  </outline>
</glyph>
<glyph name="block" format="2">
  <advance width="740"/>
  <unicode hex="2588"/>
  <outline>
    <contour>
      <point x="740" y="0" type="line"/>
      <point x="740" y="-125" type="line"/>
      <point x="277.5" y="-125" type="line"/>
      <point x="0" y="-125" type="line"/>
      <point x="0" y="875" type="line"/>
      <point x="277.5" y="875" type="line"/>
      <point x="647.5" y="875" type="line"/>
      <point x="740" y="875" type="line"/>
      <point x="740" y="375" type="line"/>
    </contour>
  </outline>
</glyph>
<glyph name="rtblock" format="2">
  <advance width="740"/>
  <unicode hex="2590"/>
  <outline>
    <contour>
      <point x="740" y="-125" type="line"/>
      <point x="370" y="-125" type="line"/>
      <point x="370" y="875" type="line"/>
      <point x="740" y="875" type="line"/>
    </contour>
  </outline>
</glyph>
<glyph name="filledbox" format="2">
  <advance width="740"/>
  <unicode hex="25A0"/>
  <outline>
    <contour>
      <point x="185" y="125" type="line"/>
      <point x="185" y="625" type="line"/>
      <point x="555" y="625" type="line"/>
      <point x="555" y="125" type="line"/>
    </contour>
  </outline>
</glyph>
<glyph name="filledrect" format="2">
  <advance width="740"/>
  <unicode hex="25AC"/>
  <outline>
    <contour>
      <point x="647.5" y="375" type="line"/>
      <point x="647.5" y="0" type="line"/>
      <point x="92.5" y="0" type="line"/>
      <point x="92.5" y="375" type="line"/>
    </contour>
  </outline>
</glyph>
<glyph name="triagrt" format="2">
  <advance width="740"/>
  <unicode hex="25BA"/>
  <outline>
    <contour>
      <point x="277.5" y="250" type="line"/>
      <point x="277.5" y="125" type="line"/>
      <point x="92.5" y="125" type="line"/>
      <point x="92.5" y="0" type="line"/>
      <point x="0" y="0" type="line"/>
      <point x="0" y="875" type="line"/>
      <point x="92.5" y="875" type="line"/>
      <point x="92.5" y="750" type="line"/>
      <point x="277.5" y="750" type="line"/>
      <point x="277.5" y="625" type="line"/>
      <point x="462.5" y="625" type="line"/>
      <point x="462.5" y="500" type="line"/>
      <point x="647.5" y="500" type="line"/>
      <point x="647.5" y="375" type="line"/>
      <point x="462.5" y="375" type="line"/>
      <point x="462.5" y="250" type="line"/>
    </contour>
  </outline>
</glyph>
